<svg width="36" height="36" viewBox="0 0 36 36" fill="none" xmlns="http://www.w3.org/2000/svg">
<path d="M31.9995 10.5226L28.8448 11.1367L25.4769 10.5226L24.7451 7.06404L25.4769 4L31.9995 10.5226Z" fill="#EA4335"/>
<path d="M25.4769 10.5226V20.5452H13.8635L10.5226 23.8861L10.0899 25.4467L10.5226 27.0678V30.9448C10.5226 31.8834 11.6569 32.3528 12.3203 31.6894L16.9418 27.0678H30.0905C31.1453 27.0678 31.9996 26.2135 31.9996 25.1588V10.5226H25.4769Z" fill="#34A853"/>
<path d="M10.5226 20.5452L7.02268 21.0034L4 20.5452V10.5226L7.25972 9.99921L10.5226 10.5226V20.5452Z" fill="#4285F4"/>
<path d="M10.5226 10.5226H4V5.90906C4 4.8543 4.8543 4 5.90906 4H10.5226L11.1224 7.0895L10.5226 10.5226Z" fill="#1967D2"/>
<path d="M10.5226 20.5452V27.0678H5.90906C4.8543 27.0678 4 26.2135 4 25.1587V20.5452H10.5226Z" fill="#188038"/>
<path d="M25.4769 10.5226V4L10.5226 4L10.5226 10.5226L25.4769 10.5226Z" fill="#FBBC04"/>
</svg>
